<?xml version="1.0" encoding="UTF-8" standalone="no"?>
<!-- Created with Inkscape (http://www.inkscape.org/) -->

<svg
   xmlns:dc="http://purl.org/dc/elements/1.1/"
   xmlns:cc="http://creativecommons.org/ns#"
   xmlns:rdf="http://www.w3.org/1999/02/22-rdf-syntax-ns#"
   xmlns:svg="http://www.w3.org/2000/svg"
   xmlns="http://www.w3.org/2000/svg"
   xmlns:sodipodi="http://sodipodi.sourceforge.net/DTD/sodipodi-0.dtd"
   xmlns:inkscape="http://www.inkscape.org/namespaces/inkscape"
   width="48px"
   height="48px"
   id="svg3027"
   version="1.1"
   inkscape:version="0.48.4 r9939"
   sodipodi:docname="logo-2.svg">
  <defs
     id="defs3029">
    <clipPath
       clipPathUnits="userSpaceOnUse"
       id="clipPath16">
      <path
         inkscape:connector-curvature="0"
         d="M 0,792 612,792 612,0 0,0 0,792 z"
         id="path18" />
    </clipPath>
    <clipPath
       clipPathUnits="userSpaceOnUse"
       id="clipPath36">
      <path
         inkscape:connector-curvature="0"
         d="m 284.583,414.604 163.455,0 0,-98.795 -163.455,0 0,98.795 z"
         id="path38" />
    </clipPath>
  </defs>
  <sodipodi:namedview
     id="base"
     pagecolor="#ffffff"
     bordercolor="#666666"
     borderopacity="1.0"
     inkscape:pageopacity="0.0"
     inkscape:pageshadow="2"
     inkscape:zoom="7"
     inkscape:cx="-1.1428571"
     inkscape:cy="24"
     inkscape:current-layer="g14"
     showgrid="true"
     inkscape:grid-bbox="true"
     inkscape:document-units="px"
     inkscape:window-width="1211"
     inkscape:window-height="825"
     inkscape:window-x="468"
     inkscape:window-y="169"
     inkscape:window-maximized="0" />
  <metadata
     id="metadata3032">
    <rdf:RDF>
      <cc:Work
         rdf:about="">
        <dc:format>image/svg+xml</dc:format>
        <dc:type
           rdf:resource="http://purl.org/dc/dcmitype/StillImage" />
      </cc:Work>
    </rdf:RDF>
  </metadata>
  <g
     id="layer1"
     inkscape:label="Layer 1"
     inkscape:groupmode="layer">
    <g
       id="g12"
       transform="matrix(0.1559361,0,0,-0.1559361,-23.75669,84.991945)">
      <g
         id="g14"
         clip-path="url(#clipPath16)">
        <g
           id="g20"
           transform="translate(273.2695,396.5215)">
          <path
             d="M 0,0 C -15.965,-13.576 -39.917,-11.641 -53.493,4.328 -67.071,20.294 -65.132,44.246 -49.167,57.822 -33.2,71.4 -9.249,69.463 4.329,53.496 17.906,37.528 15.969,13.578 0,0 m 39.546,101.862 c -1.986,2.21 -5.358,0.318 -5.358,0.318 0,0 -15.697,-9.567 -17.911,-10.908 -2.216,-1.342 -2.955,-0.347 -2.955,-0.347 0,0 -6.002,3.24 -8.242,4.478 -2.242,1.235 -2.333,2.999 -2.333,2.999 0,0 -0.767,16.566 -0.943,19.448 -0.177,2.882 -2.562,3.778 -2.562,3.778 0,0 -26.44,3.076 -30.825,3.138 -4.384,0.06 -4.716,-4.77 -4.716,-4.77 0,0 -3.674,-17.203 -4.113,-18.982 -0.434,-1.778 -1.697,-2.203 -1.697,-2.203 0,0 -8.071,-2.098 -9.165,-2.595 -1.095,-0.496 -2.21,0.18 -2.21,0.18 0,0 -13.923,11.66 -15.954,14.048 -2.031,2.389 -4.9,0.924 -4.9,0.924 0,0 -20.596,-17.298 -23.163,-19.372 -2.567,-2.075 -0.967,-4.726 -0.967,-4.726 0,0 10.819,-18.204 11.879,-19.576 1.06,-1.374 0.063,-2.111 0.063,-2.111 0,0 -4.076,-5.524 -4.37,-7.724 -0.296,-2.201 -1.959,-1.774 -1.959,-1.774 0,0 -16.155,-0.739 -20.207,-0.939 -4.056,-0.201 -4.9,-3.408 -4.9,-3.408 0,0 -3.283,-28.998 -2.954,-31.425 0.332,-2.426 3.708,-4.103 3.708,-4.103 l 21.773,-4.084 c 0,0 2.072,-7.911 3.031,-9.804 0.959,-1.892 -0.622,-3.345 -0.622,-3.345 0,0 -11.334,-12.78 -13.851,-15.674 -2.516,-2.901 -0.307,-5.244 -0.307,-5.244 0,0 14.955,-17.716 18.429,-21.801 3.474,-4.084 6.861,-0.554 6.861,-0.554 0,0 15.005,8.969 16.621,10.129 1.615,1.153 3.071,0.333 3.071,0.333 0,0 5.41,-3.303 8.449,-4.076 3.039,-0.773 2.055,-2.801 2.055,-2.801 0,0 0.64,-13.103 0.92,-19.035 0.28,-5.935 4.266,-5.146 4.266,-5.146 0,0 22.359,-2.862 28.462,-2.655 6.105,0.211 5.988,4.551 5.988,4.551 0,0 3.035,14.387 3.784,17.839 0.748,3.449 3.299,3.886 3.299,3.886 0,0 4.324,0.645 6.754,1.738 2.429,1.093 3.426,-0.336 3.426,-0.336 0,0 9.248,-7.947 13.964,-12.602 4.714,-4.653 7.663,-1.497 7.663,-1.497 0,0 19.527,16.388 22.373,19.026 2.846,2.637 0.379,5.412 0.379,5.412 0,0 -9.646,16.057 -11.195,17.879 -1.55,1.823 -0.282,3.767 -0.282,3.767 0,0 2.656,3.883 4,6.758 1.344,2.875 3.507,2.115 3.507,2.115 0,0 15.241,0.29 19.264,0.784 4.018,0.496 4.442,4.325 4.442,4.325 0,0 2.598,25.598 2.524,29.76 -0.071,4.16 -4.177,4.788 -4.177,4.788 0,0 -16.999,3.305 -19.188,3.715 -2.191,0.412 -2.621,2.32 -2.621,2.32 0,0 -1.694,6.574 -2.331,8.09 -0.639,1.514 1.104,3.54 1.104,3.54 0,0 11.236,13.018 13.449,15.766 2.213,2.747 0.114,5.727 0.114,5.727 0,0 -16.658,19.849 -18.644,22.058"
             style="fill:#81a1c1;fill-opacity:1;fill-rule:nonzero;stroke:none"
             id="path22"
             inkscape:connector-curvature="0" />
        </g>
        <g
           id="g24"
           transform="translate(435.8398,315.8418)">
          <path
             d="m 0,0 -137.95,0 c -13.766,0 -13.221,-1.258 -13.221,12 l 0,74.666 c 0,13.992 -1.9,12 12.161,12 l 139.01,0 c 13.369,0 12.162,0.973 12.162,-12 L 12.162,12 C 12.162,-0.967 13.494,0 0,0 m 12.135,110.615 -163.327,0 c -6.745,0 -12.212,-5.589 -12.212,-12.483 l 0,-97.532 c 0,-6.895 5.467,-12.485 12.212,-12.485 l 163.327,0 c 6.742,0 12.211,5.59 12.211,12.485 l 0,97.532 c 0,6.894 -5.469,12.483 -12.211,12.483"
             style="fill:#4f6372;fill-opacity:1;fill-rule:nonzero;stroke:none"
             id="path26"
             inkscape:connector-curvature="0" />
        </g>
        <g
           id="g28"
           transform="translate(377.6445,296.5)">
          <path
             d="m 0,0 c 1.166,-17.832 24.166,-21.082 24.166,-21.082 l 0,-4.75 -71,0 0.063,4.769 c 0,0 25.468,2 26.062,20.897 L 0,0 z"
             style="fill:#4f6372;fill-opacity:1;fill-rule:nonzero;stroke:none"
             id="path30"
             inkscape:connector-curvature="0" />
        </g>
        <g
           id="g32">
          <g
             id="g34" />
          <g
             id="g40">
            <g
               clip-path="url(#clipPath36)"
               id="g42"
               style="opacity:0.75">
              <g
                 transform="translate(448.002,327.8408)"
                 id="g44">
                <path
                   d="m 0,0 c 0,-12.967 1.332,-12 -12.162,-12 l -137.95,0 c -13.766,0 -13.221,-1.258 -13.221,12 l 0,74.666 c 0,13.992 -1.9,12 12.161,12 l 139.01,0 C 1.207,86.666 0,87.639 0,74.666 L 0,0 z"
                   style="fill:#ffffff;fill-opacity:1;fill-rule:nonzero;stroke:none"
                   id="path46"
                   inkscape:connector-curvature="0" />
              </g>
            </g>
          </g>
        </g>
        <g
           id="g48"
           transform="translate(372.1621,349.2734)">
          <path
             d="m 0,0 c -8.957,-3.242 -18.848,1.391 -22.09,10.35 -3.244,8.959 1.391,18.849 10.348,22.091 C -2.783,35.684 7.107,31.051 10.35,22.092 13.592,13.133 8.959,3.242 0,0 m 33.037,37.084 c -0.494,1.256 -2.23,0.986 -2.23,0.986 0,0 -8.205,-1.574 -9.362,-1.793 -1.158,-0.218 -1.312,0.323 -1.312,0.323 0,0 -2.041,2.332 -2.799,3.214 -0.76,0.881 -0.518,1.647 -0.518,1.647 0,0 2.309,7.176 2.692,8.432 0.383,1.255 -0.49,2.015 -0.49,2.015 0,0 -10.77,5.516 -12.627,6.238 -1.858,0.725 -2.768,-1.281 -2.768,-1.281 0,0 -4.299,-6.74 -4.768,-7.427 -0.468,-0.69 -1.074,-0.668 -1.074,-0.668 0,0 -3.771,0.388 -4.316,0.351 -0.543,-0.037 -0.912,0.428 -0.912,0.428 0,0 -4.074,7.18 -4.559,8.519 -0.484,1.34 -1.939,1.172 -1.939,1.172 0,0 -11.522,-4.09 -12.944,-4.564 -1.424,-0.477 -1.164,-1.858 -1.164,-1.858 0,0 1.713,-9.47 1.946,-10.222 0.234,-0.754 -0.309,-0.91 -0.309,-0.91 0,0 -2.613,-1.704 -3.09,-2.594 -0.474,-0.889 -1.115,-0.444 -1.115,-0.444 0,0 -6.996,2.254 -8.754,2.815 -1.758,0.558 -2.629,-0.674 -2.629,-0.674 0,0 -6.009,-11.824 -6.254,-12.91 -0.245,-1.086 0.926,-2.338 0.926,-2.338 l 8.623,-5.201 c 0,0 -0.377,-3.699 -0.27,-4.656 0.108,-0.959 -0.796,-1.327 -0.796,-1.327 0,0 -6.859,-3.638 -8.391,-4.472 -1.533,-0.834 -0.965,-2.184 -0.965,-2.184 0,0 3.551,-9.92 4.381,-12.213 0.83,-2.291 2.834,-1.328 2.834,-1.328 0,0 7.816,1.434 8.687,1.67 0.872,0.236 1.362,-0.346 1.362,-0.346 0,0 1.777,-2.267 2.949,-3.08 1.172,-0.812 0.43,-1.519 0.43,-1.519 0,0 -1.811,-5.68 -2.635,-8.252 -0.824,-2.571 0.998,-2.869 0.998,-2.869 0,0 9.066,-4.774 11.697,-5.657 2.633,-0.88 3.274,0.987 3.274,0.987 0,0 3.58,5.642 4.447,6.994 0.867,1.349 2.023,1.131 2.023,1.131 0,0 1.946,-0.414 3.153,-0.336 1.209,0.08 1.406,-0.688 1.406,-0.688 0,0 2.674,-4.853 3.941,-7.586 1.268,-2.73 3.026,-1.855 3.026,-1.855 0,0 10.922,3.873 12.553,4.543 1.63,0.67 1.021,2.244 1.021,2.244 0,0 -1.553,8.371 -1.924,9.393 -0.369,1.023 0.481,1.65 0.481,1.65 0,0 1.748,1.23 2.777,2.242 1.029,1.01 1.83,0.342 1.83,0.342 0,0 6.535,-2.301 8.326,-2.729 1.791,-0.429 2.58,1.133 2.58,1.133 0,0 5.178,10.489 5.809,12.272 0.631,1.785 -1.018,2.703 -1.018,2.703 0,0 -6.713,4.111 -7.58,4.635 -0.867,0.523 -0.748,1.404 -0.748,1.404 0,0 0.324,3.068 0.293,3.814 -0.029,0.748 1.035,1.332 1.035,1.332 0,0 6.856,3.758 8.235,4.577 1.379,0.818 0.957,2.42 0.957,2.42 0,0 -3.936,11.097 -4.432,12.355"
             style="fill:#8fbcbb;fill-opacity:1;fill-rule:nonzero;stroke:none"
             id="path50"
             inkscape:connector-curvature="0" />
        </g>
      </g>
    </g>
  </g>
</svg>
